<?xml version="1.0" standalone="no"?><!DOCTYPE svg PUBLIC "-//W3C//DTD SVG 1.1//EN" "http://www.w3.org/Graphics/SVG/1.1/DTD/svg11.dtd"><svg class="icon" width="200px" height="108.42px" viewBox="0 0 1889 1024" version="1.1" xmlns="http://www.w3.org/2000/svg"><path fill="#333333" d="M902.821264 643.963614C854.565673 692.219205 776.261682 692.136067 727.946707 643.821092S679.584224 517.237756 727.839815 468.982165s126.535828-48.196207 174.850804 0.118768S951.076855 595.708022 902.821264 643.963614z m-10.285342-10.285342c42.566586-42.566586 42.519079-111.642274-0.118768-154.28012-42.649724-42.649724-111.725411-42.697231-154.291998-0.130646s-42.519079 111.642274 0.118769 154.280121 111.725411 42.697231 154.291997 0.130645zM727.626032 520.955206a7.272835 7.272835 0 0 1 13.492088 5.439592 80.23633 80.23633 0 0 0 5.249562 70.572169 7.272835 7.272835 0 1 1-12.518187 7.387393 94.765203 94.765203 0 0 1-6.211586-83.41103zM887.405129 649.094407l20.558805-20.558805 30.879778 30.879777L918.284906 679.974185zM897.702347 679.962308m20.558806-20.558806l0 0q20.558806-20.558806 41.117612 0l82.401499 82.4015q20.558806 20.558806 0 41.117612l0 0q-20.558806 20.558806-41.117612 0l-82.401499-82.4015q-20.558806-20.558806 0-41.117612ZM944.796647 204.139902m7.272835 0l14.528873 0q7.272835 0 7.272834 7.272835l0 14.562465q0 7.272835-7.272834 7.272835l-14.528873 0q-7.272835 0-7.272835-7.272835l0-14.562465q0-7.272835 7.272835-7.272835ZM886.647563 204.139902m7.272835 0l14.528872 0q7.272835 0 7.272835 7.272835l0 14.562465q0 7.272835-7.272835 7.272835l-14.528872 0q-7.272835 0-7.272835-7.272835l0-14.562465q0-7.272835 7.272835-7.272835ZM828.515275 204.139902m7.272835 0l14.528873 0q7.272835 0 7.272834 7.272835l0 14.562465q0 7.272835-7.272834 7.272835l-14.528873 0q-7.272835 0-7.272835-7.272835l0-14.562465q0-7.272835 7.272835-7.272835ZM319.769575 262.372968m8.398192 0l651.834103 0q8.398192 0 8.398192 8.398193l0 0q0 8.398192-8.398192 8.398192l-651.834103 0q-8.398192 0-8.398192-8.398192l0 0q0-8.398192 8.398192-8.398193ZM174.430457 800.982641m8.398192 0l1087.88505 0q8.398192 0 8.398192 8.398192l0 0q0 8.398192-8.398192 8.398193l-1087.88505 0q-8.398192 0-8.398192-8.398193l0 0q0-8.398192 8.398192-8.398192ZM1061.07802 669.970839m8.398192 0l375.651147 0q8.398192 0 8.398192 8.398193l0 0q0 8.398192-8.398192 8.398192l-375.651147 0q-8.398192 0-8.398192-8.398192l0 0q0-8.398192 8.398192-8.398193ZM7.272835 800.982641H109.008538c4.031132 0 7.272835 3.241702 7.272834 7.256038v0.033593a7.272835 7.272835 0 0 1-7.272834 7.256038H7.272835A7.272835 7.272835 0 0 1 0 808.272272v-0.033593c0-4.014336 3.258499-7.256038 7.272835-7.256038zM1359.045887 800.982641h130.827041c4.014336 0 7.272835 3.241702 7.272835 7.256038v0.033593a7.272835 7.272835 0 0 1-7.272835 7.256038h-130.827041a7.272835 7.272835 0 0 1-7.256039-7.256038v-0.033593c0-4.014336 3.241702-7.256038 7.256039-7.256038zM319.769575 349.714169m8.398192 0l506.478188 0q8.398192 0 8.398193 8.398193l0 0q0 8.398192-8.398193 8.398192l-506.478188 0q-8.398192 0-8.398192-8.398192l0 0q0-8.398192 8.398192-8.398193ZM327.042409 437.055371h334.315244c4.014336 0 7.272835 3.258499 7.272835 7.272834v0.016797a7.272835 7.272835 0 0 1-7.272835 7.272834H327.042409a7.272835 7.272835 0 0 1-7.272834-7.272834v-0.016797c0-4.031132 3.258499-7.272835 7.272834-7.272834zM327.042409 524.396572h276.16616c4.031132 0 7.272835 3.258499 7.272834 7.272834v0.016797a7.272835 7.272835 0 0 1-7.272834 7.272834H327.042409a7.272835 7.272835 0 0 1-7.272834-7.272834v-0.016797c0-4.031132 3.258499-7.272835 7.272834-7.272834zM327.042409 611.737773h232.562745c4.031132 0 7.272835 3.258499 7.272834 7.272835v0.016796a7.272835 7.272835 0 0 1-7.272834 7.272835H327.042409a7.272835 7.272835 0 0 1-7.272834-7.272835v-0.016796c0-4.031132 3.258499-7.272835 7.272834-7.272835zM327.042409 699.078974h348.860913c3.99754 0 7.256038 3.258499 7.256039 7.272835v0.016796a7.272835 7.272835 0 0 1-7.272835 7.272835H327.042409a7.272835 7.272835 0 0 1-7.272834-7.272835v-0.016796c0-4.031132 3.258499-7.272835 7.272834-7.272835zM1235.508476 102.253032m7.272835 0l14.528873 0q7.272835 0 7.272834 7.272834l0 14.562466q0 7.272835-7.272834 7.272835l-14.528873 0q-7.272835 0-7.272835-7.272835l0-14.562466q0-7.272835 7.272835-7.272834ZM1177.359392 102.253032m7.272834 0l14.528873 0q7.272835 0 7.272835 7.272834l0 14.562466q0 7.272835-7.272835 7.272835l-14.528873 0q-7.272835 0-7.272834-7.272835l0-14.562466q0-7.272835 7.272834-7.272834ZM1119.227104 102.253032m7.272834 0l14.528873 0q7.272835 0 7.272835 7.272834l0 14.562466q0 7.272835-7.272835 7.272835l-14.528873 0q-7.272835 0-7.272834-7.272835l0-14.562466q0-7.272835 7.272834-7.272834ZM1082.879727 160.469301h188.95933c4.031132 0 7.272835 3.258499 7.272834 7.272835v0.016797a7.272835 7.272835 0 0 1-7.272834 7.272834h-188.95933a7.272835 7.272835 0 0 1-7.272835-7.272834v-0.016797c0-4.014336 3.258499-7.272835 7.272835-7.272835zM1097.425396 247.810503H1271.82226c4.031132 0 7.272835 3.258499 7.272835 7.272834v0.016797a7.272835 7.272835 0 0 1-7.272835 7.272834H1097.425396a7.272835 7.272835 0 0 1-7.272834-7.272834v-0.016797c0-4.014336 3.258499-7.272835 7.272834-7.272834zM1097.425396 335.151704H1271.82226c4.031132 0 7.272835 3.258499 7.272835 7.272834v0.016797a7.272835 7.272835 0 0 1-7.272835 7.272834H1097.425396a7.272835 7.272835 0 0 1-7.272834-7.272834v-0.016797c0-4.014336 3.258499-7.272835 7.272834-7.272834zM1097.425396 422.492905H1271.82226c4.031132 0 7.272835 3.258499 7.272835 7.272835v0.016796a7.272835 7.272835 0 0 1-7.272835 7.272835H1097.425396a7.272835 7.272835 0 0 1-7.272834-7.272835v-0.016796c0-4.014336 3.258499-7.272835 7.272834-7.272835zM1097.425396 509.834106H1271.82226c4.031132 0 7.272835 3.258499 7.272835 7.272835v0.016796a7.272835 7.272835 0 0 1-7.272835 7.272835H1097.425396a7.272835 7.272835 0 0 1-7.272834-7.272835v-0.016796c0-4.014336 3.258499-7.272835 7.272834-7.272835zM1097.425396 597.175307H1271.82226c4.031132 0 7.272835 3.258499 7.272835 7.272835v0.016796a7.272835 7.272835 0 0 1-7.272835 7.272835H1097.425396a7.272835 7.272835 0 0 1-7.272834-7.272835v-0.016796c0-4.014336 3.258499-7.272835 7.272834-7.272835zM305.240702 131.361167a58.149084 58.149084 0 0 0-58.132288 58.149084v553.323306a58.149084 58.149084 0 0 0 58.132288 58.149084h697.70503a58.149084 58.149084 0 0 0 58.132288-58.149084V189.510251A58.149084 58.149084 0 0 0 1002.945732 131.361167H305.240702z m0-14.528873h697.70503a72.677957 72.677957 0 0 1 72.66116 72.677957v553.323306a72.677957 72.677957 0 0 1-72.66116 72.677957H305.240702a72.677957 72.677957 0 0 1-72.677957-72.677957V189.510251a72.677957 72.677957 0 0 1 72.677957-72.677957zM1293.65756 669.987636a43.603415 43.603415 0 0 0 43.586619-43.603415V73.044118a43.603415 43.603415 0 0 0-43.603415-43.603415H595.952531a43.603415 43.603415 0 0 0-43.603416 43.603415v43.788176h450.596617a72.677957 72.677957 0 0 1 72.66116 72.677957v480.477385H1293.65756z m-232.57954 14.528873V189.510251A58.149084 58.149084 0 0 0 1002.945732 131.361167H537.803446V73.044118A58.149084 58.149084 0 0 1 595.952531 14.91183h697.688233a58.149084 58.149084 0 0 1 58.149084 58.132288v553.340103a58.149084 58.149084 0 0 1-58.149084 58.132288H1061.07802zM116.281372 422.492905H94.496461a7.272835 7.272835 0 1 1 0-14.545669h21.784911v-21.852097a7.272835 7.272835 0 0 1 14.528873 0v21.8353h21.801708a7.272835 7.272835 0 1 1 0 14.562466H130.810245v21.852097a7.272835 7.272835 0 0 1-14.528873 0v-21.835301zM188.959329 44.019965H167.174418a7.272835 7.272835 0 1 1 0-14.562465h21.784911v-21.835301a7.272835 7.272835 0 1 1 14.528873 0v21.835301h21.801708a7.272835 7.272835 0 0 1 0 14.562465h-21.801708v21.835301a7.272835 7.272835 0 1 1-14.528873 0V44.019965zM1453.525551 335.151704h-21.784911a7.272835 7.272835 0 1 1 0-14.545669h21.784911v-21.852097a7.272835 7.272835 0 0 1 14.54567 0v21.8353H1489.839335a7.272835 7.272835 0 0 1 0 14.562466h-21.784911v21.852097a7.272835 7.272835 0 0 1-14.545669 0v-21.835301zM50.87625 255.083337a43.637008 43.637008 0 0 1-43.603415-43.6706c0-24.102812 19.517399-43.653804 43.603415-43.653804a43.637008 43.637008 0 0 1 43.603415 43.6706c0 24.102812-19.517399 43.653804-43.603415 43.653804z m0-14.528873c16.057344 0 29.057746-13.050791 29.057745-29.124931 0-16.090937-13.000402-29.124931-29.057745-29.124931s-29.057746 13.033995-29.057746 29.124931c0 16.07414 13.000402 29.124931 29.057746 29.124931zM1489.872928 167.742136a29.091339 29.091339 0 1 1 0.033593-58.165881 29.091339 29.091339 0 0 1-0.033593 58.165881z m0-14.528873a14.545669 14.545669 0 1 0-0.033593-29.108135 14.545669 14.545669 0 0 0 0.033593 29.108135z" /></svg>